<svg viewBox="0 0 1217.1479 333.3767" x="0" y="0" fill="none" xmlns="http://www.w3.org/2000/svg"><defs><filter id="filter2_d_1_23" x="-4.638300000000015" y="-0.463799999999992" width="1226.43" height="342.19" filterUnits="userSpaceOnUse" color-interpolation-filters="sRGB" xmlns="http://www.w3.org/2000/svg">
<feFlood flood-opacity="0" result="BackgroundImageFix"/>
<feColorMatrix in="SourceAlpha" type="matrix" values="0 0 0 0 0 0 0 0 0 0 0 0 0 0 0 0 0 0 127 0" result="hardAlpha"/>
<feOffset dy="3.71082"/>
<feGaussianBlur stdDeviation="1.85541"/>
<feComposite in2="hardAlpha" operator="out"/>
<feColorMatrix type="matrix" values="0 0 0 0 0 0 0 0 0 0 0 0 0 0 0 0 0 0 0.25 0"/>
<feBlend mode="normal" in2="BackgroundImageFix" result="effect1_dropShadow_1_23"/>
<feBlend mode="normal" in="SourceGraphic" in2="effect1_dropShadow_1_23" result="shape"/>
</filter><linearGradient id="paint1_linear_1_23" x1="680.6727" y1="22.593200000000024" x2="680.6727" y2="345.8512" gradientUnits="userSpaceOnUse" xmlns="http://www.w3.org/2000/svg">
<stop stop-color="#1E6FFF"/>
<stop offset="0.638614" stop-color="#1E6FFF"/>
</linearGradient><linearGradient id="paint2_linear_1_23" x1="680.6727" y1="17.954200000000014" x2="680.6727" y2="341.2132" gradientUnits="userSpaceOnUse" xmlns="http://www.w3.org/2000/svg">
<stop stop-color="#1E6FFF"/>
<stop offset="0.638614" stop-color="#1E6FFF"/>
</linearGradient><linearGradient id="paint3_linear_1_23" x1="680.6727" y1="14.243200000000002" x2="680.6727" y2="337.5022000000001" gradientUnits="userSpaceOnUse" xmlns="http://www.w3.org/2000/svg">
<stop stop-color="#1E6FFF"/>
<stop offset="0.638614" stop-color="#1E6FFF"/>
</linearGradient><linearGradient id="paint4_linear_1_23" x1="680.6727" y1="10.532200000000046" x2="680.6727" y2="333.79120000000006" gradientUnits="userSpaceOnUse" xmlns="http://www.w3.org/2000/svg">
<stop stop-color="#1E6FFF"/>
<stop offset="0.638614" stop-color="#1E6FFF"/>
</linearGradient><linearGradient id="paint5_linear_1_23" x1="680.6727" y1="6.822200000000009" x2="680.6727" y2="330.08020000000005" gradientUnits="userSpaceOnUse" xmlns="http://www.w3.org/2000/svg">
<stop stop-color="#1E6FFF"/>
<stop offset="0.638614" stop-color="#1E6FFF"/>
</linearGradient><linearGradient id="paint6_linear_1_23" x1="680.6727" y1="3.1111999999999966" x2="680.6727" y2="326.36920000000003" gradientUnits="userSpaceOnUse" xmlns="http://www.w3.org/2000/svg">
<stop stop-color="#1E6FFF"/>
<stop offset="0.638614" stop-color="#1E6FFF"/>
</linearGradient><linearGradient id="paint7_linear_1_23" x1="680.6727" y1="-0.5997999999999593" x2="680.6727" y2="322.6592" gradientUnits="userSpaceOnUse" xmlns="http://www.w3.org/2000/svg">
<stop stop-color="#1E6FFF"/>
<stop offset="0.638614" stop-color="#1E6FFF"/>
</linearGradient><linearGradient id="paint8_linear_1_23" x1="680.6727" y1="-4.310799999999972" x2="680.6727" y2="318.9482" gradientUnits="userSpaceOnUse" xmlns="http://www.w3.org/2000/svg">
<stop stop-color="#1E6FFF"/>
<stop offset="0.638614" stop-color="#1E6FFF"/>
</linearGradient><linearGradient id="paint9_linear_1_23" x1="680.6727" y1="27.2312" x2="680.6727" y2="350.4902" gradientUnits="userSpaceOnUse" xmlns="http://www.w3.org/2000/svg">
<stop stop-color="#1E6FFF"/>
<stop offset="0.638614" stop-color="#1E6FFF"/>
</linearGradient></defs><g id="Group 1321314602" filter="url(#filter2_d_1_23)" xmlns="http://www.w3.org/2000/svg">
<path id="Vector 710" d="M0.0007,26.9032c79.316,0 143.829,63.891 144.597,143.203l0.808,83.353c0.404,41.693 34.317,75.279 76.011,75.279c41.982,0 76.015,-34.033 76.015,-76.015v-145.04c0,-41.816 33.899,-75.714 75.715,-75.714c41.816,0 75.714,33.898 75.714,75.714v145.274c0,41.853 33.929,75.781 75.781,75.781c41.853,0 75.781,-33.928 75.781,-75.781v-145.306c0,-41.798 33.884,-75.682 75.683,-75.682c41.798,0 75.682,33.884 75.682,75.682v145.309c0,41.851 33.927,75.778 75.778,75.778c41.849,0 75.779,-33.927 75.779,-75.778v-141.662c0,-43.812 35.52,-79.329 79.33,-79.329c43.81,0 79.33,35.517 79.33,79.329v69.055c0,81.951 66.43,148.385 148.38,148.385h6.76" stroke="url(#paint1_linear_1_23)" stroke-width="0.927704" stroke-linecap="round"/>
<path id="Vector 712" d="M0.0007,22.2652c79.316,0 143.829,63.891 144.597,143.203l0.808,83.353c0.404,41.693 34.317,75.278 76.011,75.278c41.982,0 76.015,-34.033 76.015,-76.015v-145.039c0,-41.816 33.899,-75.715 75.715,-75.715c41.816,0 75.714,33.899 75.714,75.715v145.274c0,41.852 33.929,75.78 75.781,75.78c41.853,0 75.781,-33.928 75.781,-75.78v-145.306c0,-41.799 33.884,-75.683 75.683,-75.683c41.798,0 75.682,33.884 75.682,75.683v145.309c0,41.851 33.927,75.777 75.778,75.777c41.849,0 75.779,-33.926 75.779,-75.777v-141.662c0,-43.813 35.52,-79.33 79.33,-79.33c43.81,0 79.33,35.517 79.33,79.33v69.055c0,81.95 66.43,148.384 148.38,148.384h6.76" stroke="url(#paint2_linear_1_23)" stroke-width="0.927704" stroke-linecap="round"/>
<path id="Vector 713" d="M0.0007,18.5542c79.316,0 143.829,63.891 144.597,143.203l0.808,83.353c0.404,41.693 34.317,75.279 76.011,75.279c41.982,0 76.015,-34.034 76.015,-76.016v-145.039c0,-41.816 33.899,-75.715 75.715,-75.715c41.816,0 75.714,33.899 75.714,75.715v145.274c0,41.852 33.929,75.781 75.781,75.781c41.853,0 75.781,-33.929 75.781,-75.781v-145.306c0,-41.798 33.884,-75.683 75.683,-75.683c41.798,0 75.682,33.885 75.682,75.683v145.309c0,41.851 33.927,75.778 75.778,75.778c41.849,0 75.779,-33.927 75.779,-75.778v-141.662c0,-43.813 35.52,-79.33 79.33,-79.33c43.81,0 79.33,35.517 79.33,79.33v69.055c0,81.951 66.43,148.385 148.38,148.385h6.76" stroke="url(#paint3_linear_1_23)" stroke-width="0.927704" stroke-linecap="round"/>
<path id="Vector 714" d="M0.0007,14.8432c79.316,0 143.829,63.891 144.597,143.203l0.808,83.353c0.404,41.693 34.317,75.279 76.011,75.279c41.982,0 76.015,-34.033 76.015,-76.015v-145.04c0,-41.816 33.899,-75.714 75.715,-75.714c41.816,0 75.714,33.898 75.714,75.714v145.274c0,41.853 33.929,75.781 75.781,75.781c41.853,0 75.781,-33.928 75.781,-75.781v-145.306c0,-41.798 33.884,-75.682 75.683,-75.682c41.798,0 75.682,33.884 75.682,75.682v145.309c0,41.851 33.927,75.778 75.778,75.778c41.849,0 75.779,-33.927 75.779,-75.778v-141.662c0,-43.812 35.52,-79.329 79.33,-79.329c43.81,0 79.33,35.517 79.33,79.329v69.055c0,81.951 66.43,148.385 148.38,148.385h6.76" stroke="url(#paint4_linear_1_23)" stroke-width="0.927704" stroke-linecap="round"/>
<path id="Vector 715" d="M0.0007,11.1322c79.316,0 143.829,63.891 144.597,143.204l0.808,83.352c0.404,41.693 34.317,75.279 76.011,75.279c41.982,0 76.015,-34.033 76.015,-76.015v-145.04c0,-41.816 33.899,-75.714 75.715,-75.714c41.816,0 75.714,33.898 75.714,75.714v145.274c0,41.853 33.929,75.781 75.781,75.781c41.853,0 75.781,-33.928 75.781,-75.781v-145.306c0,-41.798 33.884,-75.682 75.683,-75.682c41.798,0 75.682,33.884 75.682,75.682v145.309c0,41.851 33.927,75.778 75.778,75.778c41.849,0 75.779,-33.927 75.779,-75.778v-141.662c0,-43.812 35.52,-79.329 79.33,-79.329c43.81,0 79.33,35.517 79.33,79.329v69.055c0,81.951 66.43,148.385 148.38,148.385h6.76" stroke="url(#paint5_linear_1_23)" stroke-width="0.927704" stroke-linecap="round"/>
<path id="Vector 716" d="M0.0007,7.4212c79.316,0 143.829,63.891 144.597,143.204l0.808,83.353c0.404,41.692 34.317,75.278 76.011,75.278c41.982,0 76.015,-34.033 76.015,-76.015v-145.04c0,-41.816 33.899,-75.714 75.715,-75.714c41.816,0 75.714,33.898 75.714,75.714v145.274c0,41.853 33.929,75.781 75.781,75.781c41.853,0 75.781,-33.928 75.781,-75.781v-145.305c0,-41.799 33.884,-75.683 75.683,-75.683c41.798,0 75.682,33.884 75.682,75.683v145.308c0,41.851 33.927,75.778 75.778,75.778c41.849,0 75.779,-33.927 75.779,-75.778v-141.662c0,-43.812 35.52,-79.329 79.33,-79.329c43.81,0 79.33,35.517 79.33,79.329v69.056c0,81.95 66.43,148.384 148.38,148.384h6.76" stroke="url(#paint6_linear_1_23)" stroke-width="0.927704" stroke-linecap="round"/>
<path id="Vector 717" d="M0.0007,3.7112c79.316,0 143.829,63.89 144.597,143.203l0.808,83.353c0.404,41.692 34.317,75.278 76.011,75.278c41.982,0 76.015,-34.033 76.015,-76.015v-145.039c0,-41.816 33.899,-75.715 75.715,-75.715c41.816,0 75.714,33.899 75.714,75.715v145.274c0,41.852 33.929,75.78 75.781,75.78c41.853,0 75.781,-33.928 75.781,-75.78v-145.306c0,-41.799 33.884,-75.683 75.683,-75.683c41.798,0 75.682,33.884 75.682,75.683v145.308c0,41.851 33.927,75.778 75.778,75.778c41.849,0 75.779,-33.927 75.779,-75.778v-141.661c0,-43.813 35.52,-79.33 79.33,-79.33c43.81,0 79.33,35.517 79.33,79.33v69.055c0,81.95 66.43,148.384 148.38,148.384h6.76" stroke="url(#paint7_linear_1_23)" stroke-width="0.927704" stroke-linecap="round"/>
<path id="Vector 718" d="M-0.0003,0.0002c79.316,0 143.829,63.891 144.598,143.203l0.807,83.353c0.404,41.693 34.317,75.279 76.012,75.279c41.982,0 76.015,-34.034 76.015,-76.016v-145.039c0,-41.816 33.899,-75.715 75.715,-75.715c41.816,0 75.714,33.899 75.714,75.715v145.274c0,41.852 33.928,75.781 75.781,75.781c41.853,0 75.781,-33.929 75.781,-75.781v-145.306c0,-41.798 33.884,-75.683 75.682,-75.683c41.799,0 75.683,33.885 75.683,75.683v145.309c0,41.851 33.927,75.778 75.778,75.778c41.849,0 75.779,-33.927 75.779,-75.778v-141.662c0,-43.813 35.52,-79.33 79.33,-79.33c43.81,0 79.33,35.517 79.33,79.33v69.055c0,81.95 66.43,148.385 148.38,148.385h6.76" stroke="url(#paint8_linear_1_23)" stroke-width="0.927704" stroke-linecap="round"/>
<path id="Vector 711" d="M0.0007,31.5422c79.316,0 143.829,63.891 144.597,143.203l0.808,83.353c0.404,41.693 34.317,75.278 76.011,75.278c41.982,0 76.015,-34.033 76.015,-76.015v-145.039c0,-41.816 33.899,-75.715 75.715,-75.715c41.816,0 75.714,33.899 75.714,75.715v145.274c0,41.852 33.929,75.78 75.781,75.78c41.853,0 75.781,-33.928 75.781,-75.78v-145.306c0,-41.799 33.884,-75.683 75.683,-75.683c41.798,0 75.682,33.884 75.682,75.683v145.309c0,41.851 33.927,75.777 75.778,75.777c41.849,0 75.779,-33.926 75.779,-75.777v-141.662c0,-43.813 35.52,-79.33 79.33,-79.33c43.81,0 79.33,35.517 79.33,79.33v69.055c0,81.95 66.43,148.384 148.38,148.384h6.76" stroke="url(#paint9_linear_1_23)" stroke-width="1.85541" stroke-linecap="round"/>
</g></svg>